<?xml version="1.0" standalone="no"?>
<!DOCTYPE svg PUBLIC "-//W3C//DTD SVG 20010904//EN"
 "http://www.w3.org/TR/2001/REC-SVG-20010904/DTD/svg10.dtd">
<svg version="1.0" xmlns="http://www.w3.org/2000/svg"
 width="4167.000000pt" height="4167.000000pt" viewBox="0 0 4167.000000 4167.000000"
 preserveAspectRatio="xMidYMid meet">

<g transform="translate(0.000000,4167.000000) scale(0.100000,-0.100000)"
fill="#000000" stroke="none">
<path d="M16525 32650 c-2565 -118 -4904 -1273 -6551 -3235 -1722 -2053 -2440
-4785 -1953 -7435 280 -1524 944 -2939 1942 -4138 272 -327 682 -748 989
-1016 1539 -1342 3425 -2111 5460 -2227 236 -13 979 -7 1173 11 963 85 1728
258 2590 585 275 104 786 343 1087 507 l98 53 2692 -2691 c1493 -1492 2731
-2721 2778 -2758 430 -341 912 -518 1450 -533 411 -11 770 67 1135 246 262
130 449 266 661 483 605 618 827 1502 589 2343 -82 291 -221 565 -413 815 -41
55 -1035 1056 -2774 2795 l-2709 2711 67 119 c542 980 910 2133 1044 3270 70
600 79 1293 25 1895 -85 933 -318 1855 -691 2731 -98 230 -322 681 -448 901
-984 1721 -2498 3075 -4301 3846 -949 406 -1938 641 -2990 711 -221 15 -732
21 -950 11z m1005 -2434 c85 -9 234 -28 330 -42 2333 -337 4309 -1892 5195
-4089 248 -616 395 -1246 457 -1965 16 -187 16 -801 0 -995 -72 -867 -282
-1644 -646 -2390 -211 -432 -426 -781 -702 -1140 -972 -1265 -2355 -2135
-3909 -2459 -699 -145 -1513 -175 -2215 -81 -1212 163 -2324 638 -3275 1400
-1358 1088 -2235 2669 -2434 4390 -36 306 -44 487 -38 883 5 367 15 522 52
793 358 2626 2264 4795 4829 5494 388 105 843 182 1281 214 188 14 892 5 1075
-13z"/>
<path d="M16605 28434 c-689 -55 -1270 -212 -1845 -498 -1387 -691 -2364
-2015 -2610 -3536 -51 -320 -76 -777 -51 -948 43 -292 191 -559 414 -748 402
-342 975 -383 1423 -102 169 105 340 291 426 463 99 195 125 307 138 585 11
245 31 390 75 566 191 749 746 1374 1465 1651 270 104 487 145 855 162 218 11
319 30 469 90 345 138 609 442 713 819 25 90 27 111 27 297 0 186 -2 207 -27
297 -96 347 -323 627 -632 781 -195 96 -297 118 -570 122 -121 1 -242 1 -270
-1z"/>
</g>
</svg>
