<?xml version="1.0" standalone="no"?>
<!DOCTYPE svg PUBLIC "-//W3C//DTD SVG 20010904//EN"
 "http://www.w3.org/TR/2001/REC-SVG-20010904/DTD/svg10.dtd">
<svg version="1.0" xmlns="http://www.w3.org/2000/svg"
 width="689.000000pt" height="362.000000pt" viewBox="0 0 689.000000 362.000000"
 preserveAspectRatio="xMidYMid meet">

<g transform="translate(0.000000,362.000000) scale(0.100000,-0.100000)"
fill="#000000" stroke="none">
<path d="M3185 3595 c-332 -48 -601 -167 -877 -387 -202 -160 -425 -451 -510
-663 -11 -27 -25 -63 -33 -80 -30 -70 -57 -159 -86 -290 -31 -135 -32 -149
-32 -365 0 -216 1 -230 32 -365 17 -77 41 -167 52 -200 27 -76 89 -227 99
-240 5 -5 23 -37 41 -70 198 -364 534 -657 934 -812 169 -66 283 -90 475 -102
181 -12 444 2 555 28 139 33 159 40 251 75 325 125 622 354 820 633 78 109
156 243 186 318 11 28 25 64 33 80 32 74 57 160 87 295 29 137 31 156 31 360
0 195 -2 226 -27 340 -25 118 -63 249 -92 315 -7 17 -21 53 -32 80 -30 75
-108 209 -186 318 -168 236 -412 443 -676 570 -117 57 -294 120 -385 138 -192
39 -483 49 -660 24z m403 -531 c194 -56 337 -202 387 -394 23 -87 16 -241 -13
-323 -55 -154 -176 -272 -340 -331 -61 -22 -90 -26 -177 -26 -90 0 -115 4
-184 29 -217 79 -346 254 -358 486 -14 261 144 485 391 556 80 23 220 24 294
3z m67 -1429 c59 -9 142 -25 184 -37 153 -42 267 -80 299 -99 18 -10 37 -19
42 -19 4 0 46 -22 92 -49 149 -89 240 -195 253 -296 7 -49 5 -53 -41 -114 -26
-34 -72 -89 -103 -120 -64 -66 -193 -171 -210 -171 -6 0 -11 -4 -11 -8 0 -14
-233 -129 -315 -155 -148 -48 -239 -61 -400 -61 -228 0 -390 39 -595 146 -181
94 -332 219 -444 368 -46 63 -48 66 -41 115 20 157 228 323 518 415 304 96
523 120 772 85z"/>
</g>
</svg>
